<svg xmlns="http://www.w3.org/2000/svg" class="graphdiagram" viewBox="-1947.5006436229796 -1200.1487480223814 3569.589249038303 1899.1330301524094"><g class="layer relationships"><g class="related-pair"><g class="relationship" transform="translate(-526.4935302734375,240.90447998046875) rotate(0)"><path class="relationship" d="M 110.7523352314042 4 L 1281.9562706833092 4 L 1281.9562706833092 16 L 1313.9562706833092 0 L 1281.9562706833092 -16 L 1281.9562706833092 -4 L 110.7523352314042 -4 Z" fill="rgb(0, 0, 0)" stroke="rgb(51, 51, 51)" stroke-width="0px"/><text class="type" text-anchor="middle" baseline-shift="30%" alignment-baseline="alphabetic" x="696.3543029573567" y="0" font-size="50px" font-family="&quot;Gill Sans&quot;, &quot;Gill Sans MT&quot;, Calibri, sans-serif">HAS_VERSION</text></g></g><g class="related-pair"><g class="relationship" transform="translate(-526.4935302734375,-728.9963684082031) rotate(90)"><path class="relationship" d="M 123.7521001084485 4 L 827.1485131572676 4 L 827.1485131572676 16 L 859.1485131572676 0 L 827.1485131572676 -16 L 827.1485131572676 -4 L 123.7521001084485 -4 Z" fill="rgb(0, 0, 0)" stroke="rgb(51, 51, 51)" stroke-width="0px"/><text class="type" text-anchor="middle" baseline-shift="30%" alignment-baseline="alphabetic" x="475.4503066328581" y="0" font-size="50px" font-family="&quot;Gill Sans&quot;, &quot;Gill Sans MT&quot;, Calibri, sans-serif">HOSTS</text></g></g><g class="related-pair"><g class="relationship" transform="translate(-526.4935302734375,240.90447998046875) rotate(-46.150166671877265)"><path class="relationship" d="M 110.7523352314042 4 L 1183.681753191714 4 L 1183.681753191714 16 L 1215.681753191714 0 L 1183.681753191714 -16 L 1183.681753191714 -4 L 110.7523352314042 -4 Z" fill="rgb(0, 0, 0)" stroke="rgb(51, 51, 51)" stroke-width="0px"/><text class="type" text-anchor="middle" baseline-shift="30%" alignment-baseline="alphabetic" x="647.2170442115591" y="0" font-size="50px" font-family="&quot;Gill Sans&quot;, &quot;Gill Sans MT&quot;, Calibri, sans-serif">IS_WRITTEN_IN</text></g></g><g class="related-pair"><g class="relationship" transform="translate(-526.4935302734375,-728.9963684082031) rotate(0)"><path class="relationship" d="M 123.7521001084485 4 L 770.4824163917087 4 L 770.4824163917087 16 L 802.4824163917087 0 L 770.4824163917087 -16 L 770.4824163917087 -4 L 123.7521001084485 -4 Z" fill="rgb(0, 0, 0)" stroke="rgb(51, 51, 51)" stroke-width="0px"/><text class="type" text-anchor="middle" baseline-shift="30%" alignment-baseline="alphabetic" x="447.11725825007863" y="0" font-size="50px" font-family="&quot;Gill Sans&quot;, &quot;Gill Sans MT&quot;, Calibri, sans-serif">HAS_DEFAULT_LANGUAGE</text></g></g><g class="related-pair"><g class="relationship" transform="translate(-526.4935302734375,240.90447998046875) rotate(0)"><path class="relationship" d="M 110.7523352314042 4 L -78.7523352314042 4 L -78.7523352314042 16 L -110.7523352314042 0 L -78.7523352314042 -16 L -78.7523352314042 -4 L 110.7523352314042 -4 Z" fill="rgb(0, 0, 0)" stroke="rgb(51, 51, 51)" stroke-width="0px"/></g></g></g><g class="layer nodes"><circle class="node node-id-0" r="95.7523352314042" fill="rgb(255, 255, 255)" stroke="rgb(0, 0, 0)" stroke-width="8px" cx="-526.4935302734375" cy="240.90447998046875"/><circle class="node node-id-1" r="98.87960578153458" fill="rgb(255, 255, 255)" stroke="rgb(0, 0, 0)" stroke-width="8px" cx="901.3423461914062" cy="240.90447998046875"/><g class="caption"><text class="caption node" text-anchor="middle" alignment-baseline="central" x="-526.4935302734375" y="240.90447998046875" fill="rgb(51, 51, 51)" font-size="50px" font-family="&quot;Gill Sans&quot;, &quot;Gill Sans MT&quot;, Calibri, sans-serif">Project</text></g><circle class="node node-id-2" r="108.7521001084485" fill="rgb(255, 255, 255)" stroke="rgb(0, 0, 0)" stroke-width="8px" cx="-526.4935302734375" cy="-728.9963684082031"/><g class="caption"><text class="caption node" text-anchor="middle" alignment-baseline="central" x="901.3423461914062" y="240.90447998046875" fill="rgb(51, 51, 51)" font-size="50px" font-family="&quot;Gill Sans&quot;, &quot;Gill Sans MT&quot;, Calibri, sans-serif">Version</text></g><circle class="node node-id-3" r="114.23975157704132" fill="rgb(255, 255, 255)" stroke="rgb(0, 0, 0)" stroke-width="8px" cx="405.2286376953125" cy="-728.9963684082031"/><g class="caption"><text class="caption node" text-anchor="middle" alignment-baseline="central" x="-526.4935302734375" y="-728.9963684082031" fill="rgb(51, 51, 51)" font-size="50px" font-family="&quot;Gill Sans&quot;, &quot;Gill Sans MT&quot;, Calibri, sans-serif">Platform</text></g><g class="caption"><text class="caption node" text-anchor="middle" alignment-baseline="central" x="405.2286376953125" y="-728.9963684082031" fill="rgb(51, 51, 51)" font-size="50px" font-family="&quot;Gill Sans&quot;, &quot;Gill Sans MT&quot;, Calibri, sans-serif">Language</text></g></g><g class="layer properties"><g class="speech-bubble node-speech-bubble" transform="translate(-594.200655830011,308.61160553704224) "><path class="speech-bubble-outline" transform="scale(-1,1) " d="M 0 0 L 30 20 L 1341.7999877929688 20 A 10 10 0 0 1 1351.7999877929688 30 L 1351.7999877929688 80 A 10 10 0 0 1 1341.7999877929688 90 L 30 90 A 10 10 0 0 1 20 80 L 20 30 Z" fill="rgb(255, 255, 255)" stroke="rgb(0, 0, 0)" stroke-width="3px"/><text class="speech-bubble-content property-key" x="-1194.066650390625" y="55" alignment-baseline="central" text-anchor="end" font-size="50px" font-family="&quot;Gill Sans&quot;, &quot;Gill Sans MT&quot;, Calibri, sans-serif" xml:space="preserve">Name: </text><text class="speech-bubble-content property-value" x="-1194.066650390625" y="55" alignment-baseline="central" font-size="50px" font-family="&quot;Gill Sans&quot;, &quot;Gill Sans MT&quot;, Calibri, sans-serif">pipenv, ID: 2153171, versions_count: 290, sourcerank: 17</text></g><g class="speech-bubble node-speech-bubble" transform="translate(1000.2219519729408,240.90447998046875) "><path class="speech-bubble-outline" transform="scale(1,1) " d="M 0 0 L 20 -10 L 20 -25 A 10 10 0 0 1 30 -35 L 610.3666534423828 -35 A 10 10 0 0 1 620.3666534423828 -25 L 620.3666534423828 25 A 10 10 0 0 1 610.3666534423828 35 L 30 35 A 10 10 0 0 1 20 25 L 20 10 Z" fill="rgb(255, 255, 255)" stroke="rgb(0, 0, 0)" stroke-width="3px"/><text class="speech-bubble-content property-key" x="213.6999969482422" y="0" alignment-baseline="central" text-anchor="end" font-size="50px" font-family="&quot;Gill Sans&quot;, &quot;Gill Sans MT&quot;, Calibri, sans-serif" xml:space="preserve">number: </text><text class="speech-bubble-content property-value" x="213.6999969482422" y="0" alignment-baseline="central" font-size="50px" font-family="&quot;Gill Sans&quot;, &quot;Gill Sans MT&quot;, Calibri, sans-serif">9.1.0, ID: 12174265</text></g><g class="speech-bubble node-speech-bubble" transform="translate(-603.3928777283998,-805.8957158631654) "><path class="speech-bubble-outline" transform="scale(-1,-1) " d="M 0 0 L 30 20 L 247.06666564941406 20 A 10 10 0 0 1 257.06666564941406 30 L 257.06666564941406 80 A 10 10 0 0 1 247.06666564941406 90 L 30 90 A 10 10 0 0 1 20 80 L 20 30 Z" fill="rgb(255, 255, 255)" stroke="rgb(0, 0, 0)" stroke-width="3px"/><text class="speech-bubble-content property-key" x="-113.36666870117188" y="-55" alignment-baseline="central" text-anchor="end" font-size="50px" font-family="&quot;Gill Sans&quot;, &quot;Gill Sans MT&quot;, Calibri, sans-serif" xml:space="preserve">name: </text><text class="speech-bubble-content property-value" x="-113.36666870117188" y="-55" alignment-baseline="central" font-size="50px" font-family="&quot;Gill Sans&quot;, &quot;Gill Sans MT&quot;, Calibri, sans-serif">Pypi</text></g><g class="speech-bubble node-speech-bubble" transform="translate(486.008340716505,-809.7760714293956) "><path class="speech-bubble-outline" transform="scale(1,-1) " d="M 0 0 L 30 20 L 305.3666687011719 20 A 10 10 0 0 1 315.3666687011719 30 L 315.3666687011719 80 A 10 10 0 0 1 305.3666687011719 90 L 30 90 A 10 10 0 0 1 20 80 L 20 30 Z" fill="rgb(255, 255, 255)" stroke="rgb(0, 0, 0)" stroke-width="3px"/><text class="speech-bubble-content property-key" x="163.6999969482422" y="-55" alignment-baseline="central" text-anchor="end" font-size="50px" font-family="&quot;Gill Sans&quot;, &quot;Gill Sans MT&quot;, Calibri, sans-serif" xml:space="preserve">name: </text><text class="speech-bubble-content property-value" x="163.6999969482422" y="-55" alignment-baseline="central" font-size="50px" font-family="&quot;Gill Sans&quot;, &quot;Gill Sans MT&quot;, Calibri, sans-serif">Python</text></g></g><g class="layer overlay"><circle class="node overlay" r="99.7523352314042" stroke="none" fill="rgba(255, 255, 255, 0)" cx="-526.4935302734375" cy="240.90447998046875"/><circle class="node ring" r="104.7523352314042" fill="none" stroke="rgba(255, 255, 255, 0)" stroke-width="10px" cx="-526.4935302734375" cy="240.90447998046875"/><circle class="node overlay" r="102.87960578153458" stroke="none" fill="rgba(255, 255, 255, 0)" cx="901.3423461914062" cy="240.90447998046875"/><circle class="node ring" r="107.87960578153458" fill="none" stroke="rgba(255, 255, 255, 0)" stroke-width="10px" cx="901.3423461914062" cy="240.90447998046875"/><circle class="node overlay" r="112.7521001084485" stroke="none" fill="rgba(255, 255, 255, 0)" cx="-526.4935302734375" cy="-728.9963684082031"/><circle class="node ring" r="117.7521001084485" fill="none" stroke="rgba(255, 255, 255, 0)" stroke-width="10px" cx="-526.4935302734375" cy="-728.9963684082031"/><path class="relationship overlay" fill="rgba(255, 255, 255, 0)" stroke="rgba(255, 255, 255, 0)" stroke-width="10px" transform="translate(-526.4935302734375,240.90447998046875) rotate(0)" d="M 110.7523352314042 4 L 1281.9562706833092 4 L 1281.9562706833092 16 L 1313.9562706833092 0 L 1281.9562706833092 -16 L 1281.9562706833092 -4 L 110.7523352314042 -4 Z"/><circle class="node overlay" r="118.23975157704132" stroke="none" fill="rgba(255, 255, 255, 0)" cx="405.2286376953125" cy="-728.9963684082031"/><circle class="node ring" r="123.23975157704132" fill="none" stroke="rgba(255, 255, 255, 0)" stroke-width="10px" cx="405.2286376953125" cy="-728.9963684082031"/><path class="relationship overlay" fill="rgba(255, 255, 255, 0)" stroke="rgba(255, 255, 255, 0)" stroke-width="10px" transform="translate(-526.4935302734375,-728.9963684082031) rotate(90)" d="M 123.7521001084485 4 L 827.1485131572676 4 L 827.1485131572676 16 L 859.1485131572676 0 L 827.1485131572676 -16 L 827.1485131572676 -4 L 123.7521001084485 -4 Z"/><path class="relationship overlay" fill="rgba(255, 255, 255, 0)" stroke="rgba(255, 255, 255, 0)" stroke-width="10px" transform="translate(-526.4935302734375,240.90447998046875) rotate(-46.150166671877265)" d="M 110.7523352314042 4 L 1183.681753191714 4 L 1183.681753191714 16 L 1215.681753191714 0 L 1183.681753191714 -16 L 1183.681753191714 -4 L 110.7523352314042 -4 Z"/><path class="relationship overlay" fill="rgba(255, 255, 255, 0)" stroke="rgba(255, 255, 255, 0)" stroke-width="10px" transform="translate(-526.4935302734375,-728.9963684082031) rotate(0)" d="M 123.7521001084485 4 L 770.4824163917087 4 L 770.4824163917087 16 L 802.4824163917087 0 L 770.4824163917087 -16 L 770.4824163917087 -4 L 123.7521001084485 -4 Z"/><path class="relationship overlay" fill="rgba(255, 255, 255, 0)" stroke="rgba(255, 255, 255, 0)" stroke-width="10px" transform="translate(-526.4935302734375,240.90447998046875) rotate(0)" d="M 110.7523352314042 4 L -78.7523352314042 4 L -78.7523352314042 16 L -110.7523352314042 0 L -78.7523352314042 -16 L -78.7523352314042 -4 L 110.7523352314042 -4 Z"/></g></svg>