<svg xmlns="http://www.w3.org/2000/svg" class="graphdiagram" viewBox="-2515.912779243096 -462.0490895358588 4395.331335830295 2338.4536247659616"><g class="layer relationships"><g class="related-pair"><g class="relationship" transform="translate(-328.40863647460947,125.17367004394526) rotate(31.917677518566485)"><path class="relationship" d="M 123.7521001084485 4 L 743.1370614660502 4 L 743.1370614660502 16 L 775.1370614660502 0 L 743.1370614660502 -16 L 743.1370614660502 -4 L 123.7521001084485 -4 Z" fill="rgb(0, 0, 0)" stroke="rgb(51, 51, 51)" stroke-width="0px"/><text class="type" text-anchor="middle" baseline-shift="30%" alignment-baseline="alphabetic" x="433.4445807872494" y="0" font-size="50px" font-family="&quot;Gill Sans&quot;, &quot;Gill Sans MT&quot;, Calibri, sans-serif">HAS_DEFAULT_LANGUAGE</text></g></g><g class="related-pair"><g class="relationship" transform="translate(-328.40863647460947,125.17367004394526) rotate(148.50882673683944)"><path class="relationship" d="M 123.7521001084485 4 L 772.5888983061602 4 L 772.5888983061602 16 L 804.5888983061602 0 L 772.5888983061602 -16 L 772.5888983061602 -4 L 123.7521001084485 -4 Z" fill="rgb(0, 0, 0)" stroke="rgb(51, 51, 51)" stroke-width="0px"/><text class="type" text-anchor="middle" baseline-shift="30%" alignment-baseline="alphabetic" x="-448.1704992073044" y="0" font-size="50px" font-family="&quot;Gill Sans&quot;, &quot;Gill Sans MT&quot;, Calibri, sans-serif" transform="rotate(180)">HOSTS</text></g></g><g class="related-pair"><g class="relationship" transform="translate(-1108.939006347655,603.3179113769525) rotate(90)"><path class="relationship" d="M 110.7523352314042 4 L 552.984023368856 4 L 552.984023368856 16 L 584.984023368856 0 L 552.984023368856 -16 L 552.984023368856 -4 L 110.7523352314042 -4 Z" fill="rgb(0, 0, 0)" stroke="rgb(51, 51, 51)" stroke-width="0px"/><text class="type" text-anchor="middle" baseline-shift="30%" alignment-baseline="alphabetic" x="331.8681793001301" y="0" font-size="50px" font-family="&quot;Gill Sans&quot;, &quot;Gill Sans MT&quot;, Calibri, sans-serif">HAS_VERSION</text></g></g><g class="related-pair"><g class="relationship" transform="translate(-1108.939006347655,603.3179113769525) rotate(0)"><path class="relationship" d="M 110.7523352314042 4 L 1386.9334417823327 4 L 1386.9334417823327 16 L 1418.9334417823327 0 L 1386.9334417823327 -16 L 1386.9334417823327 -4 L 110.7523352314042 -4 Z" fill="rgb(0, 0, 0)" stroke="rgb(51, 51, 51)" stroke-width="0px"/><text class="type" text-anchor="middle" baseline-shift="30%" alignment-baseline="alphabetic" x="748.8428885068685" y="0" font-size="50px" font-family="&quot;Gill Sans&quot;, &quot;Gill Sans MT&quot;, Calibri, sans-serif">IS_WRITTEN_IN</text></g></g><g class="related-pair"><g class="relationship" transform="translate(439.23418701171886,1302.181540527343) rotate(0)"><path class="relationship" d="M 110.7523352314042 4 L 573.5585045700278 4 L 573.5585045700278 16 L 605.5585045700278 0 L 573.5585045700278 -16 L 573.5585045700278 -4 L 110.7523352314042 -4 Z" fill="rgb(0, 0, 0)" stroke="rgb(51, 51, 51)" stroke-width="0px"/><text class="type" text-anchor="middle" baseline-shift="30%" alignment-baseline="alphabetic" x="342.15541990071597" y="0" font-size="50px" font-family="&quot;Gill Sans&quot;, &quot;Gill Sans MT&quot;, Calibri, sans-serif">HAS_VERSION</text></g></g><g class="related-pair"><g class="relationship" transform="translate(439.23418701171886,1302.181540527343) rotate(-90)"><path class="relationship" d="M 110.7523352314042 4 L 537.6238775733493 4 L 537.6238775733493 16 L 569.6238775733493 0 L 537.6238775733493 -16 L 537.6238775733493 -4 L 110.7523352314042 -4 Z" fill="rgb(0, 0, 0)" stroke="rgb(51, 51, 51)" stroke-width="0px"/><text class="type" text-anchor="middle" baseline-shift="30%" alignment-baseline="alphabetic" x="324.1881064023768" y="0" font-size="50px" font-family="&quot;Gill Sans&quot;, &quot;Gill Sans MT&quot;, Calibri, sans-serif">IS_WRITTEN_IN</text></g></g><g class="related-pair"><g class="relationship" transform="translate(-1108.939006347655,1302.181540527343) rotate(0)"><path class="relationship" d="M 113.87960578153458 4 L 1405.4208581279697 4 L 1405.4208581279697 16 L 1437.4208581279697 0 L 1405.4208581279697 -16 L 1405.4208581279697 -4 L 113.87960578153458 -4 Z" fill="rgb(0, 0, 0)" stroke="rgb(51, 51, 51)" stroke-width="0px"/><text class="type" text-anchor="middle" baseline-shift="30%" alignment-baseline="alphabetic" x="759.6502319547521" y="0" font-size="50px" font-family="&quot;Gill Sans&quot;, &quot;Gill Sans MT&quot;, Calibri, sans-serif">DEPENDS_ON</text></g></g></g><g class="layer nodes"><circle class="node node-id-0" r="108.7521001084485" fill="rgb(255, 255, 255)" stroke="rgb(0, 0, 0)" stroke-width="8px" cx="-328.40863647460947" cy="125.17367004394526"/><g class="caption"><text class="caption node" text-anchor="middle" alignment-baseline="central" x="-328.40863647460947" y="125.17367004394526" fill="rgb(51, 51, 51)" font-size="50px" font-family="&quot;Gill Sans&quot;, &quot;Gill Sans MT&quot;, Calibri, sans-serif">Platform</text></g><circle class="node node-id-1" r="114.23975157704132" fill="rgb(255, 255, 255)" stroke="rgb(0, 0, 0)" stroke-width="8px" cx="439.23418701171886" cy="603.3179113769525"/><g class="caption"><text class="caption node" text-anchor="middle" alignment-baseline="central" x="439.23418701171886" y="603.3179113769525" fill="rgb(51, 51, 51)" font-size="50px" font-family="&quot;Gill Sans&quot;, &quot;Gill Sans MT&quot;, Calibri, sans-serif">Language</text></g><circle class="node node-id-2" r="95.7523352314042" fill="rgb(255, 255, 255)" stroke="rgb(0, 0, 0)" stroke-width="8px" cx="-1108.939006347655" cy="603.3179113769525"/><g class="caption"><text class="caption node" text-anchor="middle" alignment-baseline="central" x="-1108.939006347655" y="603.3179113769525" fill="rgb(51, 51, 51)" font-size="50px" font-family="&quot;Gill Sans&quot;, &quot;Gill Sans MT&quot;, Calibri, sans-serif">Project</text></g><circle class="node node-id-3" r="98.87960578153458" fill="rgb(255, 255, 255)" stroke="rgb(0, 0, 0)" stroke-width="8px" cx="-1108.939006347655" cy="1302.181540527343"/><g class="caption"><text class="caption node" text-anchor="middle" alignment-baseline="central" x="-1108.939006347655" y="1302.181540527343" fill="rgb(51, 51, 51)" font-size="50px" font-family="&quot;Gill Sans&quot;, &quot;Gill Sans MT&quot;, Calibri, sans-serif">Version</text></g><circle class="node node-id-4" r="95.7523352314042" fill="rgb(255, 255, 255)" stroke="rgb(0, 0, 0)" stroke-width="8px" cx="439.23418701171886" cy="1302.181540527343"/><g class="caption"><text class="caption node" text-anchor="middle" alignment-baseline="central" x="439.23418701171886" y="1302.181540527343" fill="rgb(51, 51, 51)" font-size="50px" font-family="&quot;Gill Sans&quot;, &quot;Gill Sans MT&quot;, Calibri, sans-serif">Project</text></g><circle class="node node-id-5" r="98.87960578153458" fill="rgb(255, 255, 255)" stroke="rgb(0, 0, 0)" stroke-width="8px" cx="1158.6722973632811" cy="1302.181540527343"/><g class="caption"><text class="caption node" text-anchor="middle" alignment-baseline="central" x="1158.6722973632811" y="1302.181540527343" fill="rgb(51, 51, 51)" font-size="50px" font-family="&quot;Gill Sans&quot;, &quot;Gill Sans MT&quot;, Calibri, sans-serif">Version</text></g></g><g class="layer properties"><g class="speech-bubble node-speech-bubble" transform="translate(-328.40863647460947,16.421569935496763) "><path class="speech-bubble-outline" transform="scale(1,-1) " d="M 0 0 L -10 20 L -108.53333282470703 20 A 10 10 0 0 0 -118.53333282470703 30 L -118.53333282470703 80 A 10 10 0 0 0 -108.53333282470703 90 L 108.53333282470703 90 A 10 10 0 0 0 118.53333282470703 80 L 118.53333282470703 30 A 10 10 0 0 0 108.53333282470703 20 L 10 20 Z" fill="rgb(255, 255, 255)" stroke="rgb(0, 0, 0)" stroke-width="3px"/><text class="speech-bubble-content property-key" x="25.166664123535156" y="-55" alignment-baseline="central" text-anchor="end" font-size="50px" font-family="&quot;Gill Sans&quot;, &quot;Gill Sans MT&quot;, Calibri, sans-serif" xml:space="preserve">name: </text><text class="speech-bubble-content property-value" x="25.166664123535156" y="-55" alignment-baseline="central" font-size="50px" font-family="&quot;Gill Sans&quot;, &quot;Gill Sans MT&quot;, Calibri, sans-serif">Pypi</text></g><g class="speech-bubble node-speech-bubble" transform="translate(520.0138900329114,522.5382083557599) "><path class="speech-bubble-outline" transform="scale(1,-1) " d="M 0 0 L 30 20 L 305.3666687011719 20 A 10 10 0 0 1 315.3666687011719 30 L 315.3666687011719 80 A 10 10 0 0 1 305.3666687011719 90 L 30 90 A 10 10 0 0 1 20 80 L 20 30 Z" fill="rgb(255, 255, 255)" stroke="rgb(0, 0, 0)" stroke-width="3px"/><text class="speech-bubble-content property-key" x="163.6999969482422" y="-55" alignment-baseline="central" text-anchor="end" font-size="50px" font-family="&quot;Gill Sans&quot;, &quot;Gill Sans MT&quot;, Calibri, sans-serif" xml:space="preserve">name: </text><text class="speech-bubble-content property-value" x="163.6999969482422" y="-55" alignment-baseline="central" font-size="50px" font-family="&quot;Gill Sans&quot;, &quot;Gill Sans MT&quot;, Calibri, sans-serif">Python</text></g><g class="speech-bubble node-speech-bubble" transform="translate(-1176.6461319042287,535.610785820379) "><path class="speech-bubble-outline" transform="scale(-1,-1) " d="M 0 0 L 30 20 L 1327.7666473388672 20 A 10 10 0 0 1 1337.7666473388672 30 L 1337.7666473388672 80 A 10 10 0 0 1 1327.7666473388672 90 L 30 90 A 10 10 0 0 1 20 80 L 20 30 Z" fill="rgb(255, 255, 255)" stroke="rgb(0, 0, 0)" stroke-width="3px"/><text class="speech-bubble-content property-key" x="-1194.066650390625" y="-55" alignment-baseline="central" text-anchor="end" font-size="50px" font-family="&quot;Gill Sans&quot;, &quot;Gill Sans MT&quot;, Calibri, sans-serif" xml:space="preserve">name: </text><text class="speech-bubble-content property-value" x="-1194.066650390625" y="-55" alignment-baseline="central" font-size="50px" font-family="&quot;Gill Sans&quot;, &quot;Gill Sans MT&quot;, Calibri, sans-serif">pipenv, ID: 2153171, versions_count: 290, sourcerank: 17</text></g><g class="speech-bubble node-speech-bubble" transform="translate(-1178.8574461168307,1372.0999802965187) "><path class="speech-bubble-outline" transform="scale(-1,1) " d="M 0 0 L 30 20 L 610.3666534423828 20 A 10 10 0 0 1 620.3666534423828 30 L 620.3666534423828 80 A 10 10 0 0 1 610.3666534423828 90 L 30 90 A 10 10 0 0 1 20 80 L 20 30 Z" fill="rgb(255, 255, 255)" stroke="rgb(0, 0, 0)" stroke-width="3px"/><text class="speech-bubble-content property-key" x="-426.6666564941406" y="55" alignment-baseline="central" text-anchor="end" font-size="50px" font-family="&quot;Gill Sans&quot;, &quot;Gill Sans MT&quot;, Calibri, sans-serif" xml:space="preserve">number: </text><text class="speech-bubble-content property-value" x="-426.6666564941406" y="55" alignment-baseline="central" font-size="50px" font-family="&quot;Gill Sans&quot;, &quot;Gill Sans MT&quot;, Calibri, sans-serif">9.1.0, ID: 12174265</text></g><g class="speech-bubble node-speech-bubble" transform="translate(439.23418701171886,1397.9338757587473) "><path class="speech-bubble-outline" transform="scale(1,1) " d="M 0 0 L -10 20 L -577.0833358764648 20 A 10 10 0 0 0 -587.0833358764648 30 L -587.0833358764648 80 A 10 10 0 0 0 -577.0833358764648 90 L 577.0833358764648 90 A 10 10 0 0 0 587.0833358764648 80 L 587.0833358764648 30 A 10 10 0 0 0 577.0833358764648 20 L 10 20 Z" fill="rgb(255, 255, 255)" stroke="rgb(0, 0, 0)" stroke-width="3px"/><text class="speech-bubble-content property-key" x="-443.38333892822266" y="55" alignment-baseline="central" text-anchor="end" font-size="50px" font-family="&quot;Gill Sans&quot;, &quot;Gill Sans MT&quot;, Calibri, sans-serif" xml:space="preserve">name: </text><text class="speech-bubble-content property-value" x="-443.38333892822266" y="55" alignment-baseline="central" font-size="50px" font-family="&quot;Gill Sans&quot;, &quot;Gill Sans MT&quot;, Calibri, sans-serif">pip, ID: 66217, versions_count: 70, sourcerank: 15</text></g><g class="speech-bubble node-speech-bubble" transform="translate(1257.5519031448157,1302.181540527343) "><path class="speech-bubble-outline" transform="scale(1,1) " d="M 0 0 L 20 -10 L 20 -25 A 10 10 0 0 1 30 -35 L 610.3666534423828 -35 A 10 10 0 0 1 620.3666534423828 -25 L 620.3666534423828 25 A 10 10 0 0 1 610.3666534423828 35 L 30 35 A 10 10 0 0 1 20 25 L 20 10 Z" fill="rgb(255, 255, 255)" stroke="rgb(0, 0, 0)" stroke-width="3px"/><text class="speech-bubble-content property-key" x="213.6999969482422" y="0" alignment-baseline="central" text-anchor="end" font-size="50px" font-family="&quot;Gill Sans&quot;, &quot;Gill Sans MT&quot;, Calibri, sans-serif" xml:space="preserve">number: </text><text class="speech-bubble-content property-value" x="213.6999969482422" y="0" alignment-baseline="central" font-size="50px" font-family="&quot;Gill Sans&quot;, &quot;Gill Sans MT&quot;, Calibri, sans-serif">9.0.3, ID: 12442251</text></g></g><g class="layer overlay"><circle class="node overlay" r="112.7521001084485" stroke="none" fill="rgba(255, 255, 255, 0)" cx="-328.40863647460947" cy="125.17367004394526"/><circle class="node ring" r="117.7521001084485" fill="none" stroke="rgba(255, 255, 255, 0)" stroke-width="10px" cx="-328.40863647460947" cy="125.17367004394526"/><circle class="node overlay" r="118.23975157704132" stroke="none" fill="rgba(255, 255, 255, 0)" cx="439.23418701171886" cy="603.3179113769525"/><circle class="node ring" r="123.23975157704132" fill="none" stroke="rgba(255, 255, 255, 0)" stroke-width="10px" cx="439.23418701171886" cy="603.3179113769525"/><path class="relationship overlay" fill="rgba(255, 255, 255, 0)" stroke="rgba(255, 255, 255, 0)" stroke-width="10px" transform="translate(-328.40863647460947,125.17367004394526) rotate(31.917677518566485)" d="M 123.7521001084485 4 L 743.1370614660502 4 L 743.1370614660502 16 L 775.1370614660502 0 L 743.1370614660502 -16 L 743.1370614660502 -4 L 123.7521001084485 -4 Z"/><circle class="node overlay" r="99.7523352314042" stroke="none" fill="rgba(255, 255, 255, 0)" cx="-1108.939006347655" cy="603.3179113769525"/><circle class="node ring" r="104.7523352314042" fill="none" stroke="rgba(255, 255, 255, 0)" stroke-width="10px" cx="-1108.939006347655" cy="603.3179113769525"/><path class="relationship overlay" fill="rgba(255, 255, 255, 0)" stroke="rgba(255, 255, 255, 0)" stroke-width="10px" transform="translate(-328.40863647460947,125.17367004394526) rotate(148.50882673683944)" d="M 123.7521001084485 4 L 772.5888983061602 4 L 772.5888983061602 16 L 804.5888983061602 0 L 772.5888983061602 -16 L 772.5888983061602 -4 L 123.7521001084485 -4 Z"/><circle class="node overlay" r="102.87960578153458" stroke="none" fill="rgba(255, 255, 255, 0)" cx="-1108.939006347655" cy="1302.181540527343"/><circle class="node ring" r="107.87960578153458" fill="none" stroke="rgba(255, 255, 255, 0)" stroke-width="10px" cx="-1108.939006347655" cy="1302.181540527343"/><path class="relationship overlay" fill="rgba(255, 255, 255, 0)" stroke="rgba(255, 255, 255, 0)" stroke-width="10px" transform="translate(-1108.939006347655,603.3179113769525) rotate(90)" d="M 110.7523352314042 4 L 552.984023368856 4 L 552.984023368856 16 L 584.984023368856 0 L 552.984023368856 -16 L 552.984023368856 -4 L 110.7523352314042 -4 Z"/><path class="relationship overlay" fill="rgba(255, 255, 255, 0)" stroke="rgba(255, 255, 255, 0)" stroke-width="10px" transform="translate(-1108.939006347655,603.3179113769525) rotate(0)" d="M 110.7523352314042 4 L 1386.9334417823327 4 L 1386.9334417823327 16 L 1418.9334417823327 0 L 1386.9334417823327 -16 L 1386.9334417823327 -4 L 110.7523352314042 -4 Z"/><circle class="node overlay" r="99.7523352314042" stroke="none" fill="rgba(255, 255, 255, 0)" cx="439.23418701171886" cy="1302.181540527343"/><circle class="node ring" r="104.7523352314042" fill="none" stroke="rgba(255, 255, 255, 0)" stroke-width="10px" cx="439.23418701171886" cy="1302.181540527343"/><path class="relationship overlay" fill="rgba(255, 255, 255, 0)" stroke="rgba(255, 255, 255, 0)" stroke-width="10px" transform="translate(439.23418701171886,1302.181540527343) rotate(0)" d="M 110.7523352314042 4 L 573.5585045700278 4 L 573.5585045700278 16 L 605.5585045700278 0 L 573.5585045700278 -16 L 573.5585045700278 -4 L 110.7523352314042 -4 Z"/><circle class="node overlay" r="102.87960578153458" stroke="none" fill="rgba(255, 255, 255, 0)" cx="1158.6722973632811" cy="1302.181540527343"/><circle class="node ring" r="107.87960578153458" fill="none" stroke="rgba(255, 255, 255, 0)" stroke-width="10px" cx="1158.6722973632811" cy="1302.181540527343"/><path class="relationship overlay" fill="rgba(255, 255, 255, 0)" stroke="rgba(255, 255, 255, 0)" stroke-width="10px" transform="translate(439.23418701171886,1302.181540527343) rotate(-90)" d="M 110.7523352314042 4 L 537.6238775733493 4 L 537.6238775733493 16 L 569.6238775733493 0 L 537.6238775733493 -16 L 537.6238775733493 -4 L 110.7523352314042 -4 Z"/><path class="relationship overlay" fill="rgba(255, 255, 255, 0)" stroke="rgba(255, 255, 255, 0)" stroke-width="10px" transform="translate(-1108.939006347655,1302.181540527343) rotate(0)" d="M 113.87960578153458 4 L 1405.4208581279697 4 L 1405.4208581279697 16 L 1437.4208581279697 0 L 1405.4208581279697 -16 L 1405.4208581279697 -4 L 113.87960578153458 -4 Z"/></g></svg>