<svg xmlns="http://www.w3.org/2000/svg" class="graphdiagram" viewBox="-2775.7647660476646 -829.9686612047905 5406.3606299551775 3015.735538896872"><g class="layer relationships"><g class="related-pair"><g class="relationship" transform="translate(483.0489501953125,-267.4040355682373) rotate(28.570348985067355)"><path class="relationship" d="M 123.98069691944774 4 L 853.6854073522827 4 L 853.6854073522827 16 L 885.6854073522827 0 L 853.6854073522827 -16 L 853.6854073522827 -4 L 123.98069691944774 -4 Z" fill="rgb(0, 0, 0)" stroke="rgb(51, 51, 51)" stroke-width="0px"/><text class="type" text-anchor="middle" baseline-shift="30%" alignment-baseline="alphabetic" x="488.8330521358652" y="0" font-size="50px" font-family="&quot;Gill Sans&quot;, &quot;Gill Sans MT&quot;, Calibri, sans-serif">HAS_DEFAULT_LANGUAGE</text></g></g><g class="related-pair"><g class="relationship" transform="translate(483.0489501953125,-267.4040355682373) rotate(146.83918382863106)"><path class="relationship" d="M 123.98069691944774 4 L 744.6277780168589 4 L 744.6277780168589 16 L 776.6277780168589 0 L 744.6277780168589 -16 L 744.6277780168589 -4 L 123.98069691944774 -4 Z" fill="rgb(0, 0, 0)" stroke="rgb(51, 51, 51)" stroke-width="0px"/><text class="type" text-anchor="middle" baseline-shift="30%" alignment-baseline="alphabetic" transform="rotate(180)" x="-434.3042374681533" y="0" font-size="50px" font-family="&quot;Gill Sans&quot;, &quot;Gill Sans MT&quot;, Calibri, sans-serif">HOSTS</text></g></g><g class="related-pair"><g class="relationship" transform="translate(-259.7951354980469,217.97427368164062) rotate(0)"><path class="relationship" d="M 110.73316249149664 4 L 1472.941858238956 4 L 1472.941858238956 16 L 1504.941858238956 0 L 1472.941858238956 -16 L 1472.941858238956 -4 L 110.73316249149664 -4 Z" fill="rgb(0, 0, 0)" stroke="rgb(51, 51, 51)" stroke-width="0px"/><text class="type" text-anchor="middle" baseline-shift="30%" alignment-baseline="alphabetic" x="791.8375103652263" y="0" font-size="50px" font-family="&quot;Gill Sans&quot;, &quot;Gill Sans MT&quot;, Calibri, sans-serif">IS_WRITTEN_IN</text></g></g><g class="related-pair"><g class="relationship" transform="translate(-259.7951354980469,217.97427368164062) rotate(90)"><path class="relationship" d="M 110.73316249149664 4 L 648.6457863765861 4 L 648.6457863765861 16 L 680.6457863765861 0 L 648.6457863765861 -16 L 648.6457863765861 -4 L 110.73316249149664 -4 Z" fill="rgb(0, 0, 0)" stroke="rgb(51, 51, 51)" stroke-width="0px"/><text class="type" text-anchor="middle" baseline-shift="30%" alignment-baseline="alphabetic" x="379.68947443404136" y="0" font-size="50px" font-family="&quot;Gill Sans&quot;, &quot;Gill Sans MT&quot;, Calibri, sans-serif">HAS_VERSION</text></g></g><g class="related-pair"><g class="relationship" transform="translate(-259.7951354980469,1012.4996948242188) rotate(0)"><path class="relationship" d="M 113.87963476599202 4 L 1491.4549478600659 4 L 1491.4549478600659 16 L 1523.4549478600659 0 L 1491.4549478600659 -16 L 1491.4549478600659 -4 L 113.87963476599202 -4 Z" fill="rgb(0, 0, 0)" stroke="rgb(51, 51, 51)" stroke-width="0px"/><text class="type" text-anchor="middle" baseline-shift="30%" alignment-baseline="alphabetic" x="802.667291313029" y="0" font-size="50px" font-family="&quot;Gill Sans&quot;, &quot;Gill Sans MT&quot;, Calibri, sans-serif">DEPENDS_ON</text></g></g><g class="related-pair"><g class="relationship" transform="translate(1374.3929748535156,1012.4996948242188) rotate(-90)"><path class="relationship" d="M 110.73316249149664 4 L 633.2791690299716 4 L 633.2791690299716 16 L 665.2791690299716 0 L 633.2791690299716 -16 L 633.2791690299716 -4 L 110.73316249149664 -4 Z" fill="rgb(0, 0, 0)" stroke="rgb(51, 51, 51)" stroke-width="0px"/><text class="type" text-anchor="middle" baseline-shift="30%" alignment-baseline="alphabetic" x="372.0061657607341" y="0" font-size="50px" font-family="&quot;Gill Sans&quot;, &quot;Gill Sans MT&quot;, Calibri, sans-serif">IS_WRITTEN_IN</text></g></g><g class="related-pair"><g class="relationship" transform="translate(1374.3929748535156,1012.4996948242188) rotate(90)"><path class="relationship" d="M 110.73316249149664 4 L 470.7002602535392 4 L 470.7002602535392 16 L 502.7002602535392 0 L 470.7002602535392 -16 L 470.7002602535392 -4 L 110.73316249149664 -4 Z" fill="rgb(0, 0, 0)" stroke="rgb(51, 51, 51)" stroke-width="0px"/><text class="type" text-anchor="middle" baseline-shift="30%" alignment-baseline="alphabetic" x="290.7167113725179" y="0" font-size="50px" font-family="&quot;Gill Sans&quot;, &quot;Gill Sans MT&quot;, Calibri, sans-serif">HAS_VERSION</text></g></g><g class="related-pair"><g class="relationship" transform="translate(-788.7957763671875,803.257080078125) rotate(-47.891537514627785)"><path class="relationship" d="M 161.20019024142698 4 L 646.1886596831129 4 L 646.1886596831129 16 L 678.1886596831129 0 L 646.1886596831129 -16 L 646.1886596831129 -4 L 161.20019024142698 -4 Z" fill="rgb(0, 0, 0)" stroke="rgb(51, 51, 51)" stroke-width="0px"/><text class="type" text-anchor="middle" baseline-shift="30%" alignment-baseline="alphabetic" x="403.6944249622699" y="0" font-size="50px" font-family="&quot;Gill Sans&quot;, &quot;Gill Sans MT&quot;, Calibri, sans-serif">CONTRIBUTES_TO</text></g></g></g><g class="layer nodes"><circle class="node node-id-0" r="108.98069691944774" fill="rgb(255, 255, 255)" stroke="rgb(0, 0, 0)" stroke-width="8px" cx="483.0489501953125" cy="-267.4040355682373"/><g class="caption"><text class="caption node" text-anchor="middle" alignment-baseline="central" x="483.0489501953125" y="-267.4040355682373" fill="rgb(51, 51, 51)" font-size="50px" font-family="&quot;Gill Sans&quot;, &quot;Gill Sans MT&quot;, Calibri, sans-serif">Plaftorm</text></g><circle class="node node-id-1" r="114.24625211260643" fill="rgb(255, 255, 255)" stroke="rgb(0, 0, 0)" stroke-width="8px" cx="1374.3929748535156" cy="217.97427368164062"/><g class="caption"><text class="caption node" text-anchor="middle" alignment-baseline="central" x="1374.3929748535156" y="217.97427368164062" fill="rgb(51, 51, 51)" font-size="50px" font-family="&quot;Gill Sans&quot;, &quot;Gill Sans MT&quot;, Calibri, sans-serif">Language</text></g><circle class="node node-id-2" r="95.73316249149664" fill="rgb(255, 255, 255)" stroke="rgb(0, 0, 0)" stroke-width="8px" cx="-259.7951354980469" cy="217.97427368164062"/><g class="caption"><text class="caption node" text-anchor="middle" alignment-baseline="central" x="-259.7951354980469" y="217.97427368164062" fill="rgb(51, 51, 51)" font-size="50px" font-family="&quot;Gill Sans&quot;, &quot;Gill Sans MT&quot;, Calibri, sans-serif">Project</text></g><circle class="node node-id-3" r="98.87963476599202" fill="rgb(255, 255, 255)" stroke="rgb(0, 0, 0)" stroke-width="8px" cx="-259.7951354980469" cy="1012.4996948242188"/><g class="caption"><text class="caption node" text-anchor="middle" alignment-baseline="central" x="-259.7951354980469" y="1012.4996948242188" fill="rgb(51, 51, 51)" font-size="50px" font-family="&quot;Gill Sans&quot;, &quot;Gill Sans MT&quot;, Calibri, sans-serif">Version</text></g><circle class="node node-id-4" r="95.73316249149664" fill="rgb(255, 255, 255)" stroke="rgb(0, 0, 0)" stroke-width="8px" cx="1374.3929748535156" cy="1012.4996948242188"/><g class="caption"><text class="caption node" text-anchor="middle" alignment-baseline="central" x="1374.3929748535156" y="1012.4996948242188" fill="rgb(51, 51, 51)" font-size="50px" font-family="&quot;Gill Sans&quot;, &quot;Gill Sans MT&quot;, Calibri, sans-serif">Project</text></g><circle class="node node-id-5" r="98.87963476599202" fill="rgb(255, 255, 255)" stroke="rgb(0, 0, 0)" stroke-width="8px" cx="1374.3929748535156" cy="1629.07958984375"/><g class="caption"><text class="caption node" text-anchor="middle" alignment-baseline="central" x="1374.3929748535156" y="1629.07958984375" fill="rgb(51, 51, 51)" font-size="50px" font-family="&quot;Gill Sans&quot;, &quot;Gill Sans MT&quot;, Calibri, sans-serif">Version</text></g><circle class="node node-id-6" r="146.20019024142698" fill="rgb(255, 255, 255)" stroke="rgb(0, 0, 0)" stroke-width="8px" cx="-788.7957763671875" cy="803.257080078125"/><g class="caption"><text class="caption node" text-anchor="middle" alignment-baseline="central" x="-788.7957763671875" y="803.257080078125" fill="rgb(51, 51, 51)" font-size="50px" font-family="&quot;Gill Sans&quot;, &quot;Gill Sans MT&quot;, Calibri, sans-serif">Contributor</text></g></g><g class="layer properties"><g class="speech-bubble node-speech-bubble" transform="translate(483.0489501953125,-376.384732487685) "><path class="speech-bubble-outline" transform="scale(1,-1) " d="M 0 0 L -10 20 L -106.01806640625 20 A 10 10 0 0 0 -116.01806640625 30 L -116.01806640625 80 A 10 10 0 0 0 -106.01806640625 90 L 106.01806640625 90 A 10 10 0 0 0 116.01806640625 80 L 116.01806640625 30 A 10 10 0 0 0 106.01806640625 20 L 10 20 Z" fill="rgb(255, 255, 255)" stroke="rgb(0, 0, 0)" stroke-width="3px"/><text class="speech-bubble-content property-key" x="22.66845703125" y="-55" alignment-baseline="central" text-anchor="end" font-size="50px" font-family="&quot;Gill Sans&quot;, &quot;Gill Sans MT&quot;, Calibri, sans-serif" xml:space="preserve">name: </text><text class="speech-bubble-content property-value" x="22.66845703125" y="-55" alignment-baseline="central" font-size="50px" font-family="&quot;Gill Sans&quot;, &quot;Gill Sans MT&quot;, Calibri, sans-serif">Pypi</text></g><g class="speech-bubble node-speech-bubble" transform="translate(1455.1772744474877,137.1899740876687) "><path class="speech-bubble-outline" transform="scale(1,-1) " d="M 0 0 L 30 20 L 300.3125 20 A 10 10 0 0 1 310.3125 30 L 310.3125 80 A 10 10 0 0 1 300.3125 90 L 30 90 A 10 10 0 0 1 20 80 L 20 30 Z" fill="rgb(255, 255, 255)" stroke="rgb(0, 0, 0)" stroke-width="3px"/><text class="speech-bubble-content property-key" x="158.6865234375" y="-55" alignment-baseline="central" text-anchor="end" font-size="50px" font-family="&quot;Gill Sans&quot;, &quot;Gill Sans MT&quot;, Calibri, sans-serif" xml:space="preserve">name: </text><text class="speech-bubble-content property-value" x="158.6865234375" y="-55" alignment-baseline="central" font-size="50px" font-family="&quot;Gill Sans&quot;, &quot;Gill Sans MT&quot;, Calibri, sans-serif">Python</text></g><g class="speech-bubble node-speech-bubble" transform="translate(-327.4887038802178,150.2807052994697) "><path class="speech-bubble-outline" transform="scale(-1,-1) " d="M 0 0 L 30 20 L 1292.548828125 20 A 10 10 0 0 1 1302.548828125 30 L 1302.548828125 80 A 10 10 0 0 1 1292.548828125 90 L 30 90 A 10 10 0 0 1 20 80 L 20 30 Z" fill="rgb(255, 255, 255)" stroke="rgb(0, 0, 0)" stroke-width="3px"/><text class="speech-bubble-content property-key" x="-1163.8623046875" y="-55" alignment-baseline="central" text-anchor="end" font-size="50px" font-family="&quot;Gill Sans&quot;, &quot;Gill Sans MT&quot;, Calibri, sans-serif" xml:space="preserve">name: </text><text class="speech-bubble-content property-value" x="-1163.8623046875" y="-55" alignment-baseline="central" font-size="50px" font-family="&quot;Gill Sans&quot;, &quot;Gill Sans MT&quot;, Calibri, sans-serif">pipenv, ID: 2153171, versions_count: 290, sourcerank: 17</text></g><g class="speech-bubble node-speech-bubble" transform="translate(-329.71359576232896,1082.4181550885007) "><path class="speech-bubble-outline" transform="scale(-1,1) " d="M 0 0 L 30 20 L 595.283203125 20 A 10 10 0 0 1 605.283203125 30 L 605.283203125 80 A 10 10 0 0 1 595.283203125 90 L 30 90 A 10 10 0 0 1 20 80 L 20 30 Z" fill="rgb(255, 255, 255)" stroke="rgb(0, 0, 0)" stroke-width="3px"/><text class="speech-bubble-content property-key" x="-416.62109375" y="55" alignment-baseline="central" text-anchor="end" font-size="50px" font-family="&quot;Gill Sans&quot;, &quot;Gill Sans MT&quot;, Calibri, sans-serif" xml:space="preserve">number: </text><text class="speech-bubble-content property-value" x="-416.62109375" y="55" alignment-baseline="central" font-size="50px" font-family="&quot;Gill Sans&quot;, &quot;Gill Sans MT&quot;, Calibri, sans-serif">9.1.0, ID: 12174265</text></g><g class="speech-bubble node-speech-bubble" transform="translate(1470.1261373450122,1012.4996948242188) "><path class="speech-bubble-outline" transform="scale(1,1) " d="M 0 0 L 20 -10 L 20 -25 A 10 10 0 0 1 30 -35 L 1148.9697265625 -35 A 10 10 0 0 1 1158.9697265625 -25 L 1158.9697265625 25 A 10 10 0 0 1 1148.9697265625 35 L 30 35 A 10 10 0 0 1 20 25 L 20 10 Z" fill="rgb(255, 255, 255)" stroke="rgb(0, 0, 0)" stroke-width="3px"/><text class="speech-bubble-content property-key" x="158.6865234375" y="0" alignment-baseline="central" text-anchor="end" font-size="50px" font-family="&quot;Gill Sans&quot;, &quot;Gill Sans MT&quot;, Calibri, sans-serif" xml:space="preserve">name: </text><text class="speech-bubble-content property-value" x="158.6865234375" y="0" alignment-baseline="central" font-size="50px" font-family="&quot;Gill Sans&quot;, &quot;Gill Sans MT&quot;, Calibri, sans-serif">pip, ID: 66217, versions_count: 70, sourcerank: 15</text></g><g class="speech-bubble node-speech-bubble" transform="translate(1374.3929748535156,1727.959224609742) "><path class="speech-bubble-outline" transform="scale(1,1) " d="M 0 0 L -10 20 L -282.6416015625 20 A 10 10 0 0 0 -292.6416015625 30 L -292.6416015625 80 A 10 10 0 0 0 -282.6416015625 90 L 282.6416015625 90 A 10 10 0 0 0 292.6416015625 80 L 292.6416015625 30 A 10 10 0 0 0 282.6416015625 20 L 10 20 Z" fill="rgb(255, 255, 255)" stroke="rgb(0, 0, 0)" stroke-width="3px"/><text class="speech-bubble-content property-key" x="-103.9794921875" y="55" alignment-baseline="central" text-anchor="end" font-size="50px" font-family="&quot;Gill Sans&quot;, &quot;Gill Sans MT&quot;, Calibri, sans-serif" xml:space="preserve">number: </text><text class="speech-bubble-content property-value" x="-103.9794921875" y="55" alignment-baseline="central" font-size="50px" font-family="&quot;Gill Sans&quot;, &quot;Gill Sans MT&quot;, Calibri, sans-serif">9.0.3, ID: 12442251</text></g><g class="speech-bubble node-speech-bubble" transform="translate(-892.1749222976639,906.6362260086014) "><path class="speech-bubble-outline" transform="scale(-1,1) " d="M 0 0 L 30 20 L 1872.08984375 20 A 10 10 0 0 1 1882.08984375 30 L 1882.08984375 80 A 10 10 0 0 1 1872.08984375 90 L 30 90 A 10 10 0 0 1 20 80 L 20 30 Z" fill="rgb(255, 255, 255)" stroke="rgb(0, 0, 0)" stroke-width="3px"/><text class="speech-bubble-content property-key" x="-1664.2529296875" y="55" alignment-baseline="central" text-anchor="end" font-size="50px" font-family="&quot;Gill Sans&quot;, &quot;Gill Sans MT&quot;, Calibri, sans-serif" xml:space="preserve">github_id: </text><text class="speech-bubble-content property-value" x="-1664.2529296875" y="55" alignment-baseline="central" font-size="50px" font-family="&quot;Gill Sans&quot;, &quot;Gill Sans MT&quot;, Calibri, sans-serif">119893, host_type: GitHub, login:kennethreitz, name: Kenneth Reitz, uuid: 119893</text></g></g><g class="layer overlay"><circle class="node overlay" r="112.98069691944774" stroke="none" fill="rgba(255, 255, 255, 0)" cx="483.0489501953125" cy="-267.4040355682373"/><circle class="node ring" r="117.98069691944774" fill="none" stroke="rgba(255, 255, 255, 0)" stroke-width="10px" cx="483.0489501953125" cy="-267.4040355682373"/><circle class="node overlay" r="118.24625211260643" stroke="none" fill="rgba(255, 255, 255, 0)" cx="1374.3929748535156" cy="217.97427368164062"/><circle class="node ring" r="123.24625211260643" fill="none" stroke="rgba(255, 255, 255, 0)" stroke-width="10px" cx="1374.3929748535156" cy="217.97427368164062"/><path class="relationship overlay" fill="rgba(255, 255, 255, 0)" stroke="rgba(255, 255, 255, 0)" stroke-width="10px" transform="translate(483.0489501953125,-267.4040355682373) rotate(28.570348985067355)" d="M 123.98069691944774 4 L 853.6854073522827 4 L 853.6854073522827 16 L 885.6854073522827 0 L 853.6854073522827 -16 L 853.6854073522827 -4 L 123.98069691944774 -4 Z"/><circle class="node overlay" r="99.73316249149664" stroke="none" fill="rgba(255, 255, 255, 0)" cx="-259.7951354980469" cy="217.97427368164062"/><circle class="node ring" r="104.73316249149664" fill="none" stroke="rgba(255, 255, 255, 0)" stroke-width="10px" cx="-259.7951354980469" cy="217.97427368164062"/><path class="relationship overlay" fill="rgba(255, 255, 255, 0)" stroke="rgba(255, 255, 255, 0)" stroke-width="10px" transform="translate(483.0489501953125,-267.4040355682373) rotate(146.83918382863106)" d="M 123.98069691944774 4 L 744.6277780168589 4 L 744.6277780168589 16 L 776.6277780168589 0 L 744.6277780168589 -16 L 744.6277780168589 -4 L 123.98069691944774 -4 Z"/><path class="relationship overlay" fill="rgba(255, 255, 255, 0)" stroke="rgba(255, 255, 255, 0)" stroke-width="10px" transform="translate(-259.7951354980469,217.97427368164062) rotate(0)" d="M 110.73316249149664 4 L 1472.941858238956 4 L 1472.941858238956 16 L 1504.941858238956 0 L 1472.941858238956 -16 L 1472.941858238956 -4 L 110.73316249149664 -4 Z"/><circle class="node overlay" r="102.87963476599202" stroke="none" fill="rgba(255, 255, 255, 0)" cx="-259.7951354980469" cy="1012.4996948242188"/><circle class="node ring" r="107.87963476599202" fill="none" stroke="rgba(255, 255, 255, 0)" stroke-width="10px" cx="-259.7951354980469" cy="1012.4996948242188"/><path class="relationship overlay" fill="rgba(255, 255, 255, 0)" stroke="rgba(255, 255, 255, 0)" stroke-width="10px" transform="translate(-259.7951354980469,217.97427368164062) rotate(90)" d="M 110.73316249149664 4 L 648.6457863765861 4 L 648.6457863765861 16 L 680.6457863765861 0 L 648.6457863765861 -16 L 648.6457863765861 -4 L 110.73316249149664 -4 Z"/><circle class="node overlay" r="99.73316249149664" stroke="none" fill="rgba(255, 255, 255, 0)" cx="1374.3929748535156" cy="1012.4996948242188"/><circle class="node ring" r="104.73316249149664" fill="none" stroke="rgba(255, 255, 255, 0)" stroke-width="10px" cx="1374.3929748535156" cy="1012.4996948242188"/><path class="relationship overlay" fill="rgba(255, 255, 255, 0)" stroke="rgba(255, 255, 255, 0)" stroke-width="10px" transform="translate(-259.7951354980469,1012.4996948242188) rotate(0)" d="M 113.87963476599202 4 L 1491.4549478600659 4 L 1491.4549478600659 16 L 1523.4549478600659 0 L 1491.4549478600659 -16 L 1491.4549478600659 -4 L 113.87963476599202 -4 Z"/><path class="relationship overlay" fill="rgba(255, 255, 255, 0)" stroke="rgba(255, 255, 255, 0)" stroke-width="10px" transform="translate(1374.3929748535156,1012.4996948242188) rotate(-90)" d="M 110.73316249149664 4 L 633.2791690299716 4 L 633.2791690299716 16 L 665.2791690299716 0 L 633.2791690299716 -16 L 633.2791690299716 -4 L 110.73316249149664 -4 Z"/><circle class="node overlay" r="102.87963476599202" stroke="none" fill="rgba(255, 255, 255, 0)" cx="1374.3929748535156" cy="1629.07958984375"/><circle class="node ring" r="107.87963476599202" fill="none" stroke="rgba(255, 255, 255, 0)" stroke-width="10px" cx="1374.3929748535156" cy="1629.07958984375"/><path class="relationship overlay" fill="rgba(255, 255, 255, 0)" stroke="rgba(255, 255, 255, 0)" stroke-width="10px" transform="translate(1374.3929748535156,1012.4996948242188) rotate(90)" d="M 110.73316249149664 4 L 470.7002602535392 4 L 470.7002602535392 16 L 502.7002602535392 0 L 470.7002602535392 -16 L 470.7002602535392 -4 L 110.73316249149664 -4 Z"/><circle class="node overlay" r="150.20019024142698" stroke="none" fill="rgba(255, 255, 255, 0)" cx="-788.7957763671875" cy="803.257080078125"/><circle class="node ring" r="155.20019024142698" fill="none" stroke="rgba(255, 255, 255, 0)" stroke-width="10px" cx="-788.7957763671875" cy="803.257080078125"/><path class="relationship overlay" fill="rgba(255, 255, 255, 0)" stroke="rgba(255, 255, 255, 0)" stroke-width="10px" transform="translate(-788.7957763671875,803.257080078125) rotate(-47.891537514627785)" d="M 161.20019024142698 4 L 646.1886596831129 4 L 646.1886596831129 16 L 678.1886596831129 0 L 646.1886596831129 -16 L 646.1886596831129 -4 L 161.20019024142698 -4 Z"/></g></svg>